<svg width="18" height="25" viewBox="0 0 18 25" fill="none" xmlns="http://www.w3.org/2000/svg">
<g id="Group">
<path id="Vector" fill-rule="evenodd" clip-rule="evenodd" d="M8.81868 23.2725C4.51156 23.2725 0.833374 22.6023 0.833374 19.918C0.833374 17.2338 4.48822 14.7559 8.81868 14.7559C13.1258 14.7559 16.804 17.2098 16.804 19.894C16.804 22.5772 13.1491 23.2725 8.81868 23.2725Z" stroke="#212121" stroke-width="1.5" stroke-linecap="round" stroke-linejoin="round"/>
<path id="Vector_2" fill-rule="evenodd" clip-rule="evenodd" d="M8.81017 11.0367C11.6367 11.0367 13.9276 8.74578 13.9276 5.91927C13.9276 3.09275 11.6367 0.800781 8.81017 0.800781C5.98365 0.800781 3.69168 3.09275 3.69168 5.91927C3.68213 8.73624 5.95713 11.0271 8.7741 11.0367C8.78683 11.0367 8.7985 11.0367 8.81017 11.0367Z" stroke="#212121" stroke-width="1.5" stroke-linecap="round" stroke-linejoin="round"/>
</g>
</svg>
