<svg width="24" height="26" viewBox="0 0 24 26" fill="none" xmlns="http://www.w3.org/2000/svg">
<path fill-rule="evenodd" clip-rule="evenodd" d="M9.57598 24.4421C5.12632 24.4421 1.32532 23.7689 1.32532 21.0739C1.32532 18.3789 5.10182 15.9277 9.57598 15.9277C14.0257 15.9277 17.8267 18.3556 17.8267 21.0494C17.8267 23.7432 14.0502 24.4421 9.57598 24.4421Z" stroke="#212121" stroke-width="1.5" stroke-linecap="round" stroke-linejoin="round"/>
<path fill-rule="evenodd" clip-rule="evenodd" d="M9.57601 12.0848C12.4962 12.0848 14.8645 9.71648 14.8645 6.79631C14.8645 3.87498 12.4962 1.50781 9.57601 1.50781C6.65584 1.50781 4.28751 3.87498 4.28751 6.79631C4.27701 9.70598 6.62901 12.0743 9.53868 12.0848H9.57601Z" stroke="#212121" stroke-width="1.5" stroke-linecap="round" stroke-linejoin="round"/>
<path d="M20.3198 8.48438V13.1627" stroke="#212121" stroke-width="1.5" stroke-linecap="round" stroke-linejoin="round"/>
<path d="M22.7072 10.8216H17.9355" stroke="#212121" stroke-width="1.5" stroke-linecap="round" stroke-linejoin="round"/>
</svg>
