<svg width="60" height="60" viewBox="0 0 60 60" fill="none" xmlns="http://www.w3.org/2000/svg">
<g id="Type=Logo Default, Component=Logo">
<rect id="Rectangle" width="60" height="60" rx="20" fill="url(#paint0_linear_444_1119)"/>
<path id="Logo" fill-rule="evenodd" clip-rule="evenodd" d="M28.1614 12.0914C20.3224 12.881 13.7785 18.8714 12.2659 26.6422C11.9141 28.4491 11.911 31.5124 12.2588 33.298C14.0456 42.468 22.5691 48.862 31.7315 47.9053C34.4065 47.6259 36.9805 46.7965 39.146 45.516C43.5751 42.8969 46.7504 38.3832 47.7412 33.298C48.089 31.5124 48.0859 28.4491 47.7341 26.6422C45.9516 17.485 37.4394 11.1569 28.1614 12.0914ZM31.9212 21.2101C34.3947 21.7208 36.9776 23.759 38.071 26.0631C38.7391 27.4708 38.9762 28.5152 38.9731 30.036C38.9646 34.1625 36.2285 37.6617 32.1919 38.7089C30.8631 39.0536 28.3987 38.9645 27.1456 38.5265C22.8011 37.008 20.267 32.5547 21.1973 28.073C21.8457 24.949 24.7007 22.0217 27.8383 21.2635C28.8796 21.0118 30.8369 20.9863 31.9212 21.2101ZM28.3189 24.8757C26.1106 25.5645 24.6462 27.6031 24.6462 29.989C24.6462 31.5605 25.1044 32.6697 26.2083 33.7705C27.3121 34.8713 28.4243 35.3283 30 35.3283C31.5757 35.3283 32.6879 34.8713 33.7917 33.7705C34.8888 32.6764 35.3549 31.5564 35.3514 30.0223C35.3484 28.7048 35.1918 28.3982 34.8146 28.972C34.4906 29.4653 33.4286 29.9807 32.7265 29.9856C31.2973 29.9955 30 28.7154 30 27.2955C30 26.6311 30.5666 25.4834 31.0509 25.167C31.3425 24.9765 31.3858 24.8837 31.2298 24.7849C30.9161 24.5866 29.0606 24.6445 28.3189 24.8757Z" fill="#FAFAFA"/>
</g>
<defs>
<linearGradient id="paint0_linear_444_1119" x1="60" y1="60" x2="-11.3946" y2="39.2998" gradientUnits="userSpaceOnUse">
<stop stop-color="#FF4D67"/>
<stop offset="1" stop-color="#FF8A9B"/>
</linearGradient>
</defs>
</svg>
