<svg width="24" height="24" viewBox="0 0 24 24" fill="none" xmlns="http://www.w3.org/2000/svg">
<g id="Group">
<path id="Exclude" fill-rule="evenodd" clip-rule="evenodd" d="M12 2.08398C6.53187 2.08398 2.08337 6.53249 2.08337 12.0007C2.08337 17.4688 6.53187 21.9173 12 21.9173C17.4682 21.9173 21.9167 17.4688 21.9167 12.0007C21.9167 6.53249 17.4682 2.08398 12 2.08398ZM12 23.6673C5.56704 23.6673 0.333374 18.4337 0.333374 12.0007C0.333374 5.56765 5.56704 0.333984 12 0.333984C18.433 0.333984 23.6667 5.56765 23.6667 12.0007C23.6667 18.4337 18.433 23.6673 12 23.6673Z" fill="#212121"/>
<path id="Vector" fill-rule="evenodd" clip-rule="evenodd" d="M11.9932 13.6028C11.5102 13.6028 11.1182 13.2108 11.1182 12.7278V7.57227C11.1182 7.08927 11.5102 6.69727 11.9932 6.69727C12.4762 6.69727 12.8682 7.08927 12.8682 7.57227V12.7278C12.8682 13.2108 12.4762 13.6028 11.9932 13.6028Z" fill="#212121"/>
<path id="Vector_2" fill-rule="evenodd" clip-rule="evenodd" d="M12.0045 17.5951C11.3594 17.5951 10.832 17.0736 10.832 16.4284C10.832 15.7832 11.3489 15.2617 11.9929 15.2617H12.0045C12.6497 15.2617 13.1712 15.7832 13.1712 16.4284C13.1712 17.0736 12.6497 17.5951 12.0045 17.5951Z" fill="#212121"/>
</g>
</svg>
